<svg width="16" height="16" viewBox="0 0 16 16" fill="none" xmlns="http://www.w3.org/2000/svg">
    <path d="M3.41903 3.64076C4.89145 3.53149 6.34188 3.02625 7.61091 2.12505C7.84386 1.95962 8.15834 1.95962 8.39129 2.12505C9.66032 3.02625 11.1108 3.53149 12.5832 3.64076C12.9196 3.66573 13.1939 3.94074 13.1896 4.27808C13.091 12.0232 11.0968 12.8165 8.2488 13.9494L8.22853 13.9575C8.08278 14.0155 7.91942 14.0155 7.77367 13.9575L7.7534 13.9494C4.90541 12.8165 2.91124 12.0232 2.81255 4.27808C2.80825 3.94074 3.08258 3.66573 3.41903 3.64076Z" fill="#FF1D6C"/>
    <path d="M5.91913 10.3829V5.49598H6.95236V7.51233H9.04984V5.49598H10.0807V10.3829H9.04984V8.3642H6.95236V10.3829H5.91913Z" fill="white"/>
</svg>
