<svg width="16" height="16" viewBox="0 0 16 16" fill="none" xmlns="http://www.w3.org/2000/svg">
    <path d="M3.41903 3.63979C4.89145 3.53052 6.34188 3.02528 7.61091 2.12407C7.84386 1.95864 8.15834 1.95864 8.39129 2.12407C9.66032 3.02528 11.1107 3.53052 12.5832 3.63979C12.9196 3.66475 13.1939 3.93976 13.1896 4.27711C13.091 12.0222 11.0968 12.8155 8.2488 13.9485L8.22853 13.9565C8.08278 14.0145 7.91941 14.0145 7.77367 13.9565L7.7534 13.9485C4.90541 12.8155 2.91124 12.0222 2.81255 4.27711C2.80825 3.93976 3.08258 3.66475 3.41903 3.63979Z" fill="#FFA100"/>
    <path d="M5.32199 5.49501H6.59622L7.94204 8.77843H7.99931L9.34513 5.49501H10.6194V10.382H9.61716V7.20114H9.57659L8.3119 10.3581H7.62945L6.36476 7.18921H6.32419V10.382H5.32199V5.49501Z" fill="white"/>
</svg>
