<svg width="16" height="16" viewBox="0 0 16 16" fill="none" xmlns="http://www.w3.org/2000/svg">
    <path fill-rule="evenodd" clip-rule="evenodd" d="M8.0011 12.7319C6.66202 12.195 5.86782 11.8189 5.27039 10.9174C4.63943 9.96535 4.13403 8.26021 4.04458 4.80313C5.42898 4.62087 6.78197 4.13121 8.0011 3.33613C9.22023 4.13121 10.5732 4.62087 11.9576 4.80313C11.8682 8.26021 11.3628 9.96535 10.7318 10.9174C10.1344 11.8189 9.34018 12.195 8.0011 12.7319ZM8.2488 13.9485C11.0968 12.8155 13.091 12.0222 13.1896 4.27711C13.1939 3.93976 12.9196 3.66475 12.5832 3.63979C11.1107 3.53052 9.66032 3.02528 8.39129 2.12407C8.15834 1.95864 7.84386 1.95864 7.61091 2.12407C6.34188 3.02528 4.89145 3.53052 3.41903 3.63979C3.08258 3.66475 2.80825 3.93976 2.81255 4.27711C2.91124 12.0222 4.90541 12.8155 7.7534 13.9485L7.77367 13.9565C7.91941 14.0145 8.08278 14.0145 8.22853 13.9565L8.2488 13.9485Z" fill="#39A42C"/>
    <path d="M10.6158 6.37574C10.3815 6.14142 10.0016 6.14142 9.76724 6.37574L7.59434 8.54864L6.74542 7.69973C6.51111 7.46541 6.13121 7.46541 5.8969 7.69973C5.66258 7.93404 5.66258 8.31394 5.89689 8.54826L7.15561 9.80697C7.16025 9.81193 7.16499 9.81683 7.16983 9.82167C7.40414 10.056 7.78404 10.056 8.01836 9.82167L10.6158 7.22426C10.8501 6.98995 10.8501 6.61005 10.6158 6.37574Z" fill="#39A42C"/>
</svg>
