<svg width="16" height="16" viewBox="0 0 16 16" fill="none" xmlns="http://www.w3.org/2000/svg">
<path fill-rule="evenodd" clip-rule="evenodd" d="M8.0011 12.7319C6.66202 12.195 5.86782 11.8189 5.27039 10.9174C4.63943 9.96535 4.13403 8.26021 4.04458 4.80314C5.42898 4.62087 6.78197 4.13121 8.0011 3.33613C9.22023 4.13121 10.5732 4.62087 11.9576 4.80314C11.8682 8.26021 11.3628 9.96535 10.7318 10.9174C10.1344 11.8189 9.34018 12.195 8.0011 12.7319ZM8.2488 13.9485C11.0968 12.8155 13.091 12.0222 13.1896 4.27711C13.1939 3.93976 12.9196 3.66475 12.5832 3.63979C11.1107 3.53052 9.66032 3.02528 8.39129 2.12407C8.15834 1.95864 7.84386 1.95864 7.61091 2.12407C6.34188 3.02528 4.89145 3.53052 3.41903 3.63979C3.08258 3.66475 2.80825 3.93976 2.81255 4.27711C2.91124 12.0222 4.90541 12.8155 7.7534 13.9485L7.77367 13.9565C7.91942 14.0145 8.08278 14.0145 8.22853 13.9565L8.2488 13.9485Z" fill="#FFA100"/>
<path fill-rule="evenodd" clip-rule="evenodd" d="M7.96855 6.2C7.53383 6.2 7.1699 6.50881 7.08656 6.91936C7.02064 7.24411 6.70394 7.45393 6.3792 7.38801C6.05445 7.32209 5.84463 7.00539 5.91055 6.68064C6.10517 5.72185 6.95189 5 7.96855 5C9.12835 5 10.0685 5.9402 10.0685 7.1C10.0685 8.05174 9.43595 8.85455 8.56855 9.11287V9.2C8.56855 9.53137 8.29992 9.8 7.96855 9.8C7.63718 9.8 7.36855 9.53137 7.36855 9.2V8.9C7.36855 8.38015 7.7787 8.05669 8.14805 7.98222C8.55916 7.89933 8.86855 7.53512 8.86855 7.1C8.86855 6.60294 8.46561 6.2 7.96855 6.2Z" fill="#FFA100"/>
<path d="M8.56855 11C8.56855 11.3314 8.29993 11.6 7.96855 11.6C7.63718 11.6 7.36855 11.3314 7.36855 11C7.36855 10.6686 7.63718 10.4 7.96855 10.4C8.29993 10.4 8.56855 10.6686 8.56855 11Z" fill="#FFA100"/>
</svg>
