<svg width="44" height="44" viewBox="0 0 44 44" fill="none" xmlns="http://www.w3.org/2000/svg">
<rect x="1" y="1" width="42" height="42" rx="9" fill="#1C1D1F"/>
<rect x="1" y="1" width="42" height="42" rx="9" stroke="#E81C26" stroke-width="2"/>
<path fill-rule="evenodd" clip-rule="evenodd" d="M23.6663 14.2122C22.6349 13.6168 21.3643 13.6168 20.3329 14.2122L16.0885 16.6627C15.7224 16.8741 15.4061 17.1492 15.1505 17.4693L16.6815 18.2747L21.9996 21.1111L27.3178 18.2748L28.8487 17.4693C28.5931 17.1492 28.2768 16.8741 27.9107 16.6627L23.6663 14.2122ZM29.2838 18.1817L27.8031 18.9604L22.4163 21.8333L22.4165 28.5147L22.4163 30.2082C22.8499 30.1536 23.2753 30.0134 23.6663 29.7877L27.9107 27.3372C28.942 26.7418 29.5773 25.6413 29.5773 24.4505V19.5495C29.5773 19.0699 29.4743 18.6049 29.2838 18.1817ZM21.5829 30.2082L21.5831 28.5148L21.5829 21.8333L16.1961 18.9602L14.7154 18.1817C14.5249 18.6049 14.4219 19.0699 14.4219 19.5495V24.4505C14.4219 25.6413 15.0572 26.7418 16.0885 27.3372L20.3329 29.7877C20.7239 30.0134 21.1493 30.1536 21.5829 30.2082Z" fill="#C7CAD0"/>
</svg>
