<svg width="44" height="44" viewBox="0 0 44 44" fill="none" xmlns="http://www.w3.org/2000/svg">
<rect x="1" y="1" width="42" height="42" rx="9" fill="#1C1D1F"/>
<rect x="1" y="1" width="42" height="42" rx="9" stroke="#FF3B6C" stroke-width="2"/>
<path fill-rule="evenodd" clip-rule="evenodd" d="M22.3434 30.2616C26.2989 28.6881 29.0686 27.5863 29.2057 16.8291C29.2116 16.3606 28.8306 15.9787 28.3633 15.944C26.3183 15.7922 24.3038 15.0905 22.5413 13.8388C22.2177 13.6091 21.781 13.6091 21.4574 13.8388C19.6949 15.0905 17.6804 15.7922 15.6354 15.944C15.1681 15.9787 14.7871 16.3606 14.793 16.8291C14.9301 27.5863 17.6998 28.6881 21.6553 30.2616L21.6835 30.2728C21.8859 30.3533 22.1128 30.3533 22.3152 30.2728L22.3434 30.2616Z" fill="#C7CAD0"/>
<path d="M21.9994 18.6665C23.0349 18.6665 23.8744 19.506 23.8744 20.5415C23.8744 21.2772 23.4495 21.9117 22.8327 22.2188V24.4998C22.8327 24.9601 22.4596 25.3332 21.9994 25.3332C21.5391 25.3332 21.166 24.9601 21.166 24.4998V22.2188C20.5493 21.9117 20.1244 21.2772 20.1244 20.5415C20.1244 19.506 20.9638 18.6665 21.9994 18.6665Z" fill="black"/>
</svg>
