<svg width="88" height="22" viewBox="0 0 88 22" fill="none" xmlns="http://www.w3.org/2000/svg">
<rect x="0.5" y="0.5" width="87" height="21" rx="3.5" stroke="#9DA3B4"/>
<path d="M15.6367 9.69922H14.1758C14.1341 9.45964 14.0573 9.2474 13.9453 9.0625C13.8333 8.875 13.694 8.71615 13.5273 8.58594C13.3607 8.45573 13.1706 8.35807 12.957 8.29297C12.7461 8.22526 12.5182 8.19141 12.2734 8.19141C11.8385 8.19141 11.4531 8.30078 11.1172 8.51953C10.7813 8.73568 10.5182 9.05339 10.3281 9.47266C10.138 9.88932 10.043 10.3984 10.043 11C10.043 11.612 10.138 12.1276 10.3281 12.5469C10.5208 12.9635 10.7839 13.2786 11.1172 13.4922C11.4531 13.7031 11.8372 13.8086 12.2695 13.8086C12.5091 13.8086 12.7331 13.7773 12.9414 13.7148C13.1523 13.6497 13.3411 13.5547 13.5078 13.4297C13.6771 13.3047 13.819 13.151 13.9336 12.9687C14.0508 12.7865 14.1315 12.5781 14.1758 12.3437L15.6367 12.3516C15.582 12.7318 15.4635 13.0885 15.2812 13.4219C15.1016 13.7552 14.8659 14.0495 14.5742 14.3047C14.2826 14.5573 13.9414 14.7552 13.5508 14.8984C13.1602 15.0391 12.7266 15.1094 12.25 15.1094C11.5469 15.1094 10.9193 14.9466 10.3672 14.6211C9.8151 14.2956 9.38021 13.8255 9.0625 13.2109C8.74479 12.5964 8.58594 11.8594 8.58594 11C8.58594 10.138 8.74609 9.40104 9.06641 8.78906C9.38672 8.17448 9.82292 7.70443 10.375 7.37891C10.9271 7.05339 11.5521 6.89062 12.25 6.89062C12.6953 6.89062 13.1094 6.95312 13.4922 7.07812C13.875 7.20312 14.2161 7.38672 14.5156 7.62891C14.8151 7.86849 15.0612 8.16276 15.2539 8.51172C15.4492 8.85807 15.5768 9.25391 15.6367 9.69922ZM24.1123 11C24.1123 11.862 23.9508 12.6003 23.6279 13.2148C23.3076 13.8268 22.8701 14.2956 22.3154 14.6211C21.7633 14.9466 21.137 15.1094 20.4365 15.1094C19.736 15.1094 19.1084 14.9466 18.5537 14.6211C18.0016 14.293 17.5641 13.8229 17.2412 13.2109C16.9209 12.5964 16.7607 11.8594 16.7607 11C16.7607 10.138 16.9209 9.40104 17.2412 8.78906C17.5641 8.17448 18.0016 7.70443 18.5537 7.37891C19.1084 7.05339 19.736 6.89062 20.4365 6.89062C21.137 6.89062 21.7633 7.05339 22.3154 7.37891C22.8701 7.70443 23.3076 8.17448 23.6279 8.78906C23.9508 9.40104 24.1123 10.138 24.1123 11ZM22.6553 11C22.6553 10.3932 22.5602 9.88151 22.3701 9.46484C22.1826 9.04557 21.9222 8.72917 21.5889 8.51563C21.2555 8.29948 20.8714 8.19141 20.4365 8.19141C20.0016 8.19141 19.6175 8.29948 19.2842 8.51563C18.9508 8.72917 18.6891 9.04557 18.499 9.46484C18.3115 9.88151 18.2178 10.3932 18.2178 11C18.2178 11.6068 18.3115 12.1198 18.499 12.5391C18.6891 12.9557 18.9508 13.2721 19.2842 13.4883C19.6175 13.7018 20.0016 13.8086 20.4365 13.8086C20.8714 13.8086 21.2555 13.7018 21.5889 13.4883C21.9222 13.2721 22.1826 12.9557 22.3701 12.5391C22.5602 12.1198 22.6553 11.6068 22.6553 11ZM32.0566 7V15H30.7676L26.998 9.55078H26.9316V15H25.4824V7H26.7793L30.5449 12.4531H30.6152V7H32.0566ZM33.2842 8.21484V7H39.667V8.21484H37.1943V15H35.7568V8.21484H33.2842ZM40.958 15H39.4111L42.2275 7H44.0166L46.8369 15H45.29L43.1533 8.64062H43.0908L40.958 15ZM41.0088 11.8633H45.2275V13.0273H41.0088V11.8633ZM49.3398 7V15H47.8906V7H49.3398ZM57.4834 7V15H56.1943L52.4248 9.55078H52.3584V15H50.9092V7H52.2061L55.9717 12.4531H56.042V7H57.4834ZM59.0625 15V7H64.2656V8.21484H60.5117V10.3867H63.9961V11.6016H60.5117V13.7852H64.2969V15H59.0625ZM65.7441 15V7H68.7441C69.3587 7 69.8743 7.10677 70.291 7.32031C70.7103 7.53385 71.0267 7.83333 71.2402 8.21875C71.4564 8.60156 71.5645 9.04818 71.5645 9.55859C71.5645 10.0716 71.4551 10.5169 71.2363 10.8945C71.0202 11.2695 70.7012 11.5599 70.2793 11.7656C69.8574 11.9687 69.3392 12.0703 68.7246 12.0703H66.5879V10.8672H68.5293C68.8887 10.8672 69.1829 10.8177 69.4121 10.7187C69.6413 10.6172 69.8105 10.4701 69.9199 10.2773C70.0319 10.082 70.0879 9.84245 70.0879 9.55859C70.0879 9.27474 70.0319 9.03255 69.9199 8.83203C69.8079 8.62891 69.6374 8.47526 69.4082 8.37109C69.179 8.26432 68.8835 8.21094 68.5215 8.21094H67.1934V15H65.7441ZM69.877 11.375L71.8574 15H70.2402L68.2949 11.375H69.877ZM77.2461 9.19922C77.2096 8.85807 77.056 8.59245 76.7852 8.40234C76.5169 8.21224 76.168 8.11719 75.7383 8.11719C75.4362 8.11719 75.1771 8.16276 74.9609 8.25391C74.7448 8.34505 74.5794 8.46875 74.4648 8.625C74.3503 8.78125 74.2917 8.95964 74.2891 9.16016C74.2891 9.32682 74.3268 9.47135 74.4023 9.59375C74.4805 9.71615 74.5859 9.82031 74.7188 9.90625C74.8516 9.98958 74.9987 10.0599 75.1602 10.1172C75.3216 10.1745 75.4844 10.2227 75.6484 10.2617L76.3984 10.4492C76.7005 10.5195 76.9909 10.6146 77.2695 10.7344C77.5508 10.8542 77.8021 11.0052 78.0234 11.1875C78.2474 11.3698 78.4245 11.5898 78.5547 11.8477C78.6849 12.1055 78.75 12.4076 78.75 12.7539C78.75 13.2227 78.6302 13.6354 78.3906 13.9922C78.151 14.3464 77.8047 14.6237 77.3516 14.8242C76.901 15.0221 76.3555 15.1211 75.7148 15.1211C75.0924 15.1211 74.5521 15.0247 74.0938 14.832C73.638 14.6393 73.2813 14.3581 73.0234 13.9883C72.7682 13.6185 72.6302 13.168 72.6094 12.6367H74.0352C74.056 12.9154 74.1419 13.1471 74.293 13.332C74.444 13.5169 74.6406 13.6549 74.8828 13.7461C75.1276 13.8372 75.401 13.8828 75.7031 13.8828C76.0182 13.8828 76.2943 13.8359 76.5313 13.7422C76.7708 13.6458 76.9583 13.513 77.0938 13.3437C77.2292 13.1719 77.2982 12.9714 77.3008 12.7422C77.2982 12.5339 77.237 12.362 77.1172 12.2266C76.9974 12.0885 76.8294 11.974 76.6133 11.8828C76.3997 11.7891 76.1497 11.7057 75.8633 11.6328L74.9531 11.3984C74.2943 11.2292 73.7734 10.9727 73.3906 10.6289C73.0104 10.2826 72.8203 9.82292 72.8203 9.25C72.8203 8.77865 72.9479 8.36589 73.2031 8.01172C73.4609 7.65755 73.8112 7.38281 74.2539 7.1875C74.6966 6.98958 75.1979 6.89062 75.7578 6.89062C76.3255 6.89062 76.8229 6.98958 77.25 7.1875C77.6797 7.38281 78.0169 7.65495 78.2617 8.00391C78.5065 8.35026 78.6328 8.7487 78.6406 9.19922H77.2461Z" fill="#606572"/>
</svg>
