<svg width="67" height="22" viewBox="0 0 67 22" fill="none" xmlns="http://www.w3.org/2000/svg">
<rect x="0.5" y="0.5" width="66" height="21" rx="3.5" stroke="#9DA3B4"/>
<path d="M13.1367 9.19922C13.1003 8.85807 12.9466 8.59245 12.6758 8.40234C12.4076 8.21224 12.0586 8.11719 11.6289 8.11719C11.3268 8.11719 11.0677 8.16276 10.8516 8.25391C10.6354 8.34505 10.4701 8.46875 10.3555 8.625C10.2409 8.78125 10.1823 8.95964 10.1797 9.16016C10.1797 9.32682 10.2174 9.47135 10.293 9.59375C10.3711 9.71615 10.4766 9.82031 10.6094 9.90625C10.7422 9.98958 10.8893 10.0599 11.0508 10.1172C11.2122 10.1745 11.375 10.2227 11.5391 10.2617L12.2891 10.4492C12.5911 10.5195 12.8815 10.6146 13.1602 10.7344C13.4414 10.8542 13.6927 11.0052 13.9141 11.1875C14.138 11.3698 14.3151 11.5898 14.4453 11.8477C14.5755 12.1055 14.6406 12.4076 14.6406 12.7539C14.6406 13.2227 14.5208 13.6354 14.2813 13.9922C14.0417 14.3464 13.6953 14.6237 13.2422 14.8242C12.7917 15.0221 12.2461 15.1211 11.6055 15.1211C10.9831 15.1211 10.4427 15.0247 9.98438 14.832C9.52865 14.6393 9.17188 14.3581 8.91406 13.9883C8.65885 13.6185 8.52083 13.168 8.5 12.6367H9.92578C9.94661 12.9154 10.0326 13.1471 10.1836 13.332C10.3346 13.5169 10.5313 13.6549 10.7734 13.7461C11.0182 13.8372 11.2917 13.8828 11.5938 13.8828C11.9089 13.8828 12.1849 13.8359 12.4219 13.7422C12.6615 13.6458 12.849 13.513 12.9844 13.3437C13.1198 13.1719 13.1888 12.9714 13.1914 12.7422C13.1888 12.5339 13.1276 12.362 13.0078 12.2266C12.888 12.0885 12.7201 11.974 12.5039 11.8828C12.2904 11.7891 12.0404 11.7057 11.7539 11.6328L10.8438 11.3984C10.1849 11.2292 9.66406 10.9727 9.28125 10.6289C8.90104 10.2826 8.71094 9.82292 8.71094 9.25C8.71094 8.77865 8.83854 8.36589 9.09375 8.01172C9.35156 7.65755 9.70182 7.38281 10.1445 7.1875C10.5872 6.98958 11.0885 6.89062 11.6484 6.89062C12.2161 6.89062 12.7135 6.98958 13.1406 7.1875C13.5703 7.38281 13.9076 7.65495 14.1523 8.00391C14.3971 8.35026 14.5234 8.7487 14.5312 9.19922H13.1367ZM15.9326 15V7H21.1357V8.21484H17.3818V10.3867H20.8662V11.6016H17.3818V13.7852H21.167V15H15.9326ZM29.4619 9.69922H28.001C27.9593 9.45964 27.8825 9.2474 27.7705 9.0625C27.6585 8.875 27.5192 8.71615 27.3525 8.58594C27.1859 8.45573 26.9958 8.35807 26.7822 8.29297C26.5713 8.22526 26.3434 8.19141 26.0986 8.19141C25.6637 8.19141 25.2783 8.30078 24.9424 8.51953C24.6064 8.73568 24.3434 9.05339 24.1533 9.47266C23.9632 9.88932 23.8682 10.3984 23.8682 11C23.8682 11.612 23.9632 12.1276 24.1533 12.5469C24.346 12.9635 24.609 13.2786 24.9424 13.4922C25.2783 13.7031 25.6624 13.8086 26.0947 13.8086C26.3343 13.8086 26.5583 13.7773 26.7666 13.7148C26.9775 13.6497 27.1663 13.5547 27.333 13.4297C27.5023 13.3047 27.6442 13.151 27.7588 12.9687C27.876 12.7865 27.9567 12.5781 28.001 12.3437L29.4619 12.3516C29.4072 12.7318 29.2887 13.0885 29.1064 13.4219C28.9268 13.7552 28.6911 14.0495 28.3994 14.3047C28.1077 14.5573 27.7666 14.7552 27.376 14.8984C26.9854 15.0391 26.5518 15.1094 26.0752 15.1094C25.3721 15.1094 24.7445 14.9466 24.1924 14.6211C23.6403 14.2956 23.2054 13.8255 22.8877 13.2109C22.57 12.5964 22.4111 11.8594 22.4111 11C22.4111 10.138 22.5713 9.40104 22.8916 8.78906C23.2119 8.17448 23.6481 7.70443 24.2002 7.37891C24.7523 7.05339 25.3773 6.89062 26.0752 6.89062C26.5205 6.89062 26.9346 6.95312 27.3174 7.07812C27.7002 7.20312 28.0413 7.38672 28.3408 7.62891C28.6403 7.86849 28.8864 8.16276 29.0791 8.51172C29.2744 8.85807 29.402 9.25391 29.4619 9.69922ZM30.7891 15V7H33.7891C34.4036 7 34.9193 7.10677 35.3359 7.32031C35.7552 7.53385 36.0716 7.83333 36.2852 8.21875C36.5013 8.60156 36.6094 9.04818 36.6094 9.55859C36.6094 10.0716 36.5 10.5169 36.2813 10.8945C36.0651 11.2695 35.7461 11.5599 35.3242 11.7656C34.9023 11.9687 34.3841 12.0703 33.7695 12.0703H31.6328V10.8672H33.5742C33.9336 10.8672 34.2279 10.8177 34.457 10.7187C34.6862 10.6172 34.8555 10.4701 34.9648 10.2773C35.0768 10.082 35.1328 9.84245 35.1328 9.55859C35.1328 9.27474 35.0768 9.03255 34.9648 8.83203C34.8529 8.62891 34.6823 8.47526 34.4531 8.37109C34.224 8.26432 33.9284 8.21094 33.5664 8.21094H32.2383V15H30.7891ZM34.9219 11.375L36.9023 15H35.2852L33.3398 11.375H34.9219ZM37.9434 15V7H43.1465V8.21484H39.3926V10.3867H42.877V11.6016H39.3926V13.7852H43.1777V15H37.9434ZM44.2734 8.21484V7H50.6563V8.21484H48.1836V15H46.7461V8.21484H44.2734ZM56.2344 9.19922C56.1979 8.85807 56.0443 8.59245 55.7734 8.40234C55.5052 8.21224 55.1563 8.11719 54.7266 8.11719C54.4245 8.11719 54.1654 8.16276 53.9492 8.25391C53.7331 8.34505 53.5677 8.46875 53.4531 8.625C53.3385 8.78125 53.2799 8.95964 53.2773 9.16016C53.2773 9.32682 53.3151 9.47135 53.3906 9.59375C53.4688 9.71615 53.5742 9.82031 53.707 9.90625C53.8398 9.98958 53.987 10.0599 54.1484 10.1172C54.3099 10.1745 54.4727 10.2227 54.6367 10.2617L55.3867 10.4492C55.6888 10.5195 55.9792 10.6146 56.2578 10.7344C56.5391 10.8542 56.7904 11.0052 57.0117 11.1875C57.2357 11.3698 57.4128 11.5898 57.543 11.8477C57.6732 12.1055 57.7383 12.4076 57.7383 12.7539C57.7383 13.2227 57.6185 13.6354 57.3789 13.9922C57.1393 14.3464 56.793 14.6237 56.3398 14.8242C55.8893 15.0221 55.3438 15.1211 54.7031 15.1211C54.0807 15.1211 53.5404 15.0247 53.082 14.832C52.6263 14.6393 52.2695 14.3581 52.0117 13.9883C51.7565 13.6185 51.6185 13.168 51.5977 12.6367H53.0234C53.0443 12.9154 53.1302 13.1471 53.2813 13.332C53.4323 13.5169 53.6289 13.6549 53.8711 13.7461C54.1159 13.8372 54.3893 13.8828 54.6914 13.8828C55.0065 13.8828 55.2826 13.8359 55.5195 13.7422C55.7591 13.6458 55.9466 13.513 56.082 13.3437C56.2174 13.1719 56.2865 12.9714 56.2891 12.7422C56.2865 12.5339 56.2253 12.362 56.1055 12.2266C55.9857 12.0885 55.8177 11.974 55.6016 11.8828C55.388 11.7891 55.138 11.7057 54.8516 11.6328L53.9414 11.3984C53.2826 11.2292 52.7617 10.9727 52.3789 10.6289C51.9987 10.2826 51.8086 9.82292 51.8086 9.25C51.8086 8.77865 51.9362 8.36589 52.1914 8.01172C52.4492 7.65755 52.7995 7.38281 53.2422 7.1875C53.6849 6.98958 54.1862 6.89062 54.7461 6.89062C55.3138 6.89062 55.8112 6.98958 56.2383 7.1875C56.668 7.38281 57.0052 7.65495 57.25 8.00391C57.4948 8.35026 57.6211 8.7487 57.6289 9.19922H56.2344Z" fill="#606572"/>
</svg>
