<svg width="10" height="12" viewBox="0 0 10 12" fill="none" xmlns="http://www.w3.org/2000/svg">
<path d="M9.6 10.2C9.6 10.6774 9.41022 11.1351 9.07266 11.4727C8.73509 11.8102 8.27739 12 7.8 12H1.8C1.32261 12 0.864909 11.8102 0.527344 11.4727C0.189778 11.1351 0 10.6774 0 10.2V1.8C0 1.32261 0.189778 0.864909 0.527344 0.527344C0.864909 0.189778 1.32261 0 1.8 0H6L6.05918 0.00292969C6.19658 0.0165437 6.32573 0.0772954 6.42422 0.175781L9.42422 3.17578C9.53674 3.2883 9.6 3.44087 9.6 3.6V10.2ZM7.55156 3L6.6 2.04844V3H7.55156ZM1.2 10.2L1.20293 10.2592C1.21654 10.3966 1.2773 10.5257 1.37578 10.6242C1.4883 10.7367 1.64087 10.8 1.8 10.8H7.8C7.95913 10.8 8.1117 10.7367 8.22422 10.6242C8.33674 10.5117 8.4 10.3591 8.4 10.2V4.2H6.6C6.28174 4.2 5.97661 4.07348 5.75156 3.84844C5.52652 3.62339 5.4 3.31826 5.4 3V1.2H1.8C1.64087 1.2 1.4883 1.26326 1.37578 1.37578C1.26326 1.4883 1.2 1.64087 1.2 1.8V10.2Z" fill="#606572"/>
</svg>
