<svg width="22" height="22" viewBox="0 0 22 22" fill="none" xmlns="http://www.w3.org/2000/svg">
<path d="M13.0001 14.3926C13.0001 14.6266 12.8833 14.8458 12.6886 14.9756L10.088 16.709C9.62283 17.0187 9.00009 16.6849 9.00009 16.126V10.6758L5.36923 6.1377C5.00258 5.67939 5.32922 5.00008 5.9161 5H16.0841C16.671 5.00008 16.9976 5.67939 16.6309 6.1377L13.0001 10.6758V14.3926ZM10.0001 15.5654L12.0001 14.2324V10.5703C12.0001 10.4114 12.0541 10.2569 12.1534 10.1328L15.46 6H6.54013L9.84677 10.1328C9.94606 10.2569 10.0001 10.4114 10.0001 10.5703V15.5654Z" fill="#606572"/>
<path d="M20.0001 16.5V20H16.5001L20.0001 16.5Z" fill="#606572"/>
</svg>
