<svg width="174" height="28" viewBox="0 0 174 28" fill="none" xmlns="http://www.w3.org/2000/svg">
<rect width="174" height="28" rx="4" fill="#1969E8"/>
<path d="M28.666 15.3333L25.9993 12.6667M25.9993 12.6667L28.666 10M25.9993 12.6667H30.666C31.3733 12.6667 32.0515 12.9476 32.5516 13.4477C33.0517 13.9478 33.3327 14.6261 33.3327 15.3333C33.3327 16.0406 33.0517 16.7189 32.5516 17.219C32.0515 17.719 31.3733 18 30.666 18H29.9993M25.3327 15.3333L22.666 12.6667L25.3327 10" stroke="white" stroke-width="1.33333" stroke-linecap="round" stroke-linejoin="round"/>
<path d="M45.2373 18.5V8.63574H49.127C49.8014 8.63574 50.3848 8.76107 50.877 9.01172C51.3691 9.25781 51.7474 9.60645 52.0117 10.0576C52.2806 10.5042 52.415 11.0329 52.415 11.6436V11.6572C52.415 12.3226 52.2464 12.9082 51.9092 13.4141C51.5719 13.9154 51.1025 14.2686 50.501 14.4736L52.709 18.5H50.9385L48.9287 14.7061C48.915 14.7061 48.9014 14.7061 48.8877 14.7061C48.874 14.7061 48.8604 14.7061 48.8467 14.7061H46.7686V18.5H45.2373ZM46.7686 13.4619H48.9766C49.5645 13.4619 50.0202 13.3092 50.3438 13.0039C50.6673 12.694 50.8291 12.2588 50.8291 11.6982V11.6846C50.8291 11.1377 50.6605 10.707 50.3232 10.3926C49.9906 10.0781 49.5257 9.9209 48.9287 9.9209H46.7686V13.4619ZM57.1901 18.6436C56.4655 18.6436 55.8434 18.4886 55.3239 18.1787C54.8043 17.8643 54.4033 17.4199 54.1207 16.8457C53.8427 16.2715 53.7037 15.5924 53.7037 14.8086V14.8018C53.7037 14.027 53.8427 13.3503 54.1207 12.7715C54.4033 12.1927 54.7998 11.7415 55.3102 11.418C55.8252 11.0944 56.4267 10.9326 57.1149 10.9326C57.8076 10.9326 58.4023 11.0876 58.8991 11.3975C59.4004 11.7074 59.7855 12.1426 60.0543 12.7031C60.3232 13.2591 60.4577 13.9108 60.4577 14.6582V15.1777H54.4557V14.1182H59.7194L59.0084 15.1025V14.5078C59.0084 13.9792 58.9264 13.5417 58.7623 13.1953C58.6028 12.8444 58.3818 12.5824 58.0993 12.4092C57.8167 12.236 57.4909 12.1494 57.1217 12.1494C56.7526 12.1494 56.4222 12.2406 56.1305 12.4229C55.8434 12.6006 55.6155 12.8649 55.4469 13.2158C55.2829 13.5667 55.2008 13.9974 55.2008 14.5078V15.1025C55.2008 15.5902 55.2829 16.0072 55.4469 16.3535C55.611 16.6999 55.8434 16.9642 56.1442 17.1465C56.4495 17.3288 56.8095 17.4199 57.2243 17.4199C57.5433 17.4199 57.8167 17.3766 58.0446 17.29C58.277 17.1989 58.4661 17.0872 58.612 16.9551C58.7623 16.8229 58.8649 16.693 58.9196 16.5654L58.9469 16.5107H60.3825L60.3688 16.5723C60.305 16.8184 60.1933 17.0645 60.0338 17.3105C59.8743 17.5521 59.6624 17.7731 59.3981 17.9736C59.1383 18.1742 58.8239 18.3359 58.4547 18.459C58.0901 18.582 57.6686 18.6436 57.1901 18.6436ZM63.9612 18.5L61.2747 11.0762H62.8538L64.7063 16.9961H64.8157L66.6614 11.0762H68.2268L65.5471 18.5H63.9612ZM69.6044 18.5V11.0762H71.0946V18.5H69.6044ZM70.3564 9.75C70.1012 9.75 69.8824 9.65885 69.7001 9.47656C69.5178 9.29427 69.4267 9.07552 69.4267 8.82031C69.4267 8.5651 69.5178 8.34863 69.7001 8.1709C69.8824 7.98861 70.1012 7.89746 70.3564 7.89746C70.6116 7.89746 70.8303 7.98861 71.0126 8.1709C71.1949 8.34863 71.2861 8.5651 71.2861 8.82031C71.2861 9.07552 71.1949 9.29427 71.0126 9.47656C70.8303 9.65885 70.6116 9.75 70.3564 9.75ZM75.1519 18.5L72.4654 11.0762H74.0445L75.897 16.9961H76.0064L77.8521 11.0762H79.4175L76.7379 18.5H75.1519ZM83.6047 18.6436C82.8801 18.6436 82.258 18.4886 81.7385 18.1787C81.2189 17.8643 80.8179 17.4199 80.5354 16.8457C80.2574 16.2715 80.1184 15.5924 80.1184 14.8086V14.8018C80.1184 14.027 80.2574 13.3503 80.5354 12.7715C80.8179 12.1927 81.2144 11.7415 81.7248 11.418C82.2398 11.0944 82.8413 10.9326 83.5295 10.9326C84.2222 10.9326 84.8169 11.0876 85.3137 11.3975C85.815 11.7074 86.2001 12.1426 86.4689 12.7031C86.7378 13.2591 86.8723 13.9108 86.8723 14.6582V15.1777H80.8703V14.1182H86.134L85.423 15.1025V14.5078C85.423 13.9792 85.341 13.5417 85.177 13.1953C85.0174 12.8444 84.7964 12.5824 84.5139 12.4092C84.2313 12.236 83.9055 12.1494 83.5363 12.1494C83.1672 12.1494 82.8368 12.2406 82.5451 12.4229C82.258 12.6006 82.0301 12.8649 81.8615 13.2158C81.6975 13.5667 81.6154 13.9974 81.6154 14.5078V15.1025C81.6154 15.5902 81.6975 16.0072 81.8615 16.3535C82.0256 16.6999 82.258 16.9642 82.5588 17.1465C82.8641 17.3288 83.2242 17.4199 83.6389 17.4199C83.9579 17.4199 84.2313 17.3766 84.4592 17.29C84.6916 17.1989 84.8807 17.0872 85.0266 16.9551C85.177 16.8229 85.2795 16.693 85.3342 16.5654L85.3615 16.5107H86.7971L86.7834 16.5723C86.7196 16.8184 86.6079 17.0645 86.4484 17.3105C86.2889 17.5521 86.077 17.7731 85.8127 17.9736C85.5529 18.1742 85.2385 18.3359 84.8693 18.459C84.5048 18.582 84.0832 18.6436 83.6047 18.6436ZM95.6772 18.7393C94.9344 18.7393 94.2873 18.623 93.7358 18.3906C93.1844 18.1536 92.7492 17.8255 92.4302 17.4062C92.1111 16.987 91.9289 16.5016 91.8833 15.9502L91.8764 15.8613H93.3872L93.394 15.9365C93.4259 16.2327 93.5421 16.4902 93.7427 16.709C93.9477 16.9277 94.2212 17.0986 94.563 17.2217C94.9093 17.3447 95.3035 17.4062 95.7456 17.4062C96.1603 17.4062 96.5294 17.3402 96.853 17.208C97.1766 17.0758 97.4295 16.8936 97.6118 16.6611C97.7986 16.4287 97.8921 16.1621 97.8921 15.8613V15.8545C97.8921 15.4762 97.7485 15.1618 97.4614 14.9111C97.1743 14.6605 96.7049 14.4645 96.0532 14.3232L94.9731 14.0977C93.9751 13.8835 93.2482 13.5439 92.7925 13.0791C92.3367 12.6097 92.1089 12.0104 92.1089 11.2812V11.2744C92.1134 10.7048 92.2661 10.2035 92.5669 9.77051C92.8722 9.33757 93.2938 9.00033 93.8315 8.75879C94.3693 8.51725 94.9868 8.39648 95.6841 8.39648C96.3813 8.39648 96.9897 8.51725 97.5093 8.75879C98.0333 8.99577 98.4458 9.31934 98.7466 9.72949C99.0519 10.1396 99.2228 10.6022 99.2593 11.1172L99.2661 11.2061H97.769L97.7554 11.1172C97.7143 10.8483 97.6027 10.609 97.4204 10.3994C97.2427 10.1898 97.0034 10.0257 96.7026 9.90723C96.4064 9.78418 96.06 9.72493 95.6636 9.72949C95.2807 9.72949 94.9389 9.78874 94.6382 9.90723C94.3374 10.0212 94.0981 10.1875 93.9204 10.4062C93.7472 10.625 93.6606 10.8893 93.6606 11.1992V11.2061C93.6606 11.5706 93.7996 11.876 94.0776 12.1221C94.3602 12.3636 94.8182 12.5527 95.4516 12.6895L96.5317 12.9287C97.2199 13.0745 97.7781 13.2682 98.2065 13.5098C98.6349 13.7513 98.9471 14.0498 99.143 14.4053C99.3436 14.7562 99.4438 15.1755 99.4438 15.6631V15.6699C99.4438 16.2988 99.2889 16.8434 98.979 17.3037C98.6736 17.7594 98.2384 18.1126 97.6733 18.3633C97.1082 18.6139 96.4429 18.7393 95.6772 18.7393ZM104.267 18.6436C103.542 18.6436 102.92 18.4886 102.401 18.1787C101.881 17.8643 101.48 17.4199 101.197 16.8457C100.919 16.2715 100.78 15.5924 100.78 14.8086V14.8018C100.78 14.027 100.919 13.3503 101.197 12.7715C101.48 12.1927 101.876 11.7415 102.387 11.418C102.902 11.0944 103.503 10.9326 104.192 10.9326C104.884 10.9326 105.479 11.0876 105.976 11.3975C106.477 11.7074 106.862 12.1426 107.131 12.7031C107.4 13.2591 107.534 13.9108 107.534 14.6582V15.1777H101.532V14.1182H106.796L106.085 15.1025V14.5078C106.085 13.9792 106.003 13.5417 105.839 13.1953C105.679 12.8444 105.458 12.5824 105.176 12.4092C104.893 12.236 104.568 12.1494 104.198 12.1494C103.829 12.1494 103.499 12.2406 103.207 12.4229C102.92 12.6006 102.692 12.8649 102.524 13.2158C102.359 13.5667 102.277 13.9974 102.277 14.5078V15.1025C102.277 15.5902 102.359 16.0072 102.524 16.3535C102.688 16.6999 102.92 16.9642 103.221 17.1465C103.526 17.3288 103.886 17.4199 104.301 17.4199C104.62 17.4199 104.893 17.3766 105.121 17.29C105.354 17.1989 105.543 17.0872 105.689 16.9551C105.839 16.8229 105.942 16.693 105.996 16.5654L106.024 16.5107H107.459L107.445 16.5723C107.382 16.8184 107.27 17.0645 107.11 17.3105C106.951 17.5521 106.739 17.7731 106.475 17.9736C106.215 18.1742 105.901 18.3359 105.531 18.459C105.167 18.582 104.745 18.6436 104.267 18.6436ZM109.226 18.5V8.16406H110.71V18.5H109.226ZM115.895 18.6436C115.17 18.6436 114.548 18.4886 114.029 18.1787C113.509 17.8643 113.108 17.4199 112.826 16.8457C112.548 16.2715 112.409 15.5924 112.409 14.8086V14.8018C112.409 14.027 112.548 13.3503 112.826 12.7715C113.108 12.1927 113.505 11.7415 114.015 11.418C114.53 11.0944 115.132 10.9326 115.82 10.9326C116.512 10.9326 117.107 11.0876 117.604 11.3975C118.105 11.7074 118.49 12.1426 118.759 12.7031C119.028 13.2591 119.162 13.9108 119.162 14.6582V15.1777H113.161V14.1182H118.424L117.713 15.1025V14.5078C117.713 13.9792 117.631 13.5417 117.467 13.1953C117.308 12.8444 117.087 12.5824 116.804 12.4092C116.522 12.236 116.196 12.1494 115.827 12.1494C115.457 12.1494 115.127 12.2406 114.835 12.4229C114.548 12.6006 114.32 12.8649 114.152 13.2158C113.988 13.5667 113.906 13.9974 113.906 14.5078V15.1025C113.906 15.5902 113.988 16.0072 114.152 16.3535C114.316 16.6999 114.548 16.9642 114.849 17.1465C115.154 17.3288 115.514 17.4199 115.929 17.4199C116.248 17.4199 116.522 17.3766 116.749 17.29C116.982 17.1989 117.171 17.0872 117.317 16.9551C117.467 16.8229 117.57 16.693 117.624 16.5654L117.652 16.5107H119.087L119.074 16.5723C119.01 16.8184 118.898 17.0645 118.739 17.3105C118.579 17.5521 118.367 17.7731 118.103 17.9736C117.843 18.1742 117.529 18.3359 117.16 18.459C116.795 18.582 116.373 18.6436 115.895 18.6436ZM123.91 18.6436C123.19 18.6436 122.568 18.4886 122.044 18.1787C121.524 17.8643 121.123 17.4176 120.841 16.8389C120.558 16.2601 120.417 15.5697 120.417 14.7676V14.7539C120.417 13.9655 120.556 13.2865 120.834 12.7168C121.117 12.1471 121.518 11.7074 122.037 11.3975C122.561 11.0876 123.183 10.9326 123.903 10.9326C124.528 10.9326 125.063 11.042 125.51 11.2607C125.961 11.4749 126.319 11.7712 126.583 12.1494C126.852 12.5231 127.021 12.9492 127.089 13.4277L127.096 13.4619H125.667L125.66 13.4482C125.578 13.0837 125.389 12.7806 125.093 12.5391C124.797 12.293 124.402 12.1699 123.91 12.1699C123.5 12.1699 123.147 12.2747 122.851 12.4844C122.554 12.6895 122.327 12.9857 122.167 13.373C122.012 13.7604 121.935 14.2207 121.935 14.7539V14.7676C121.935 15.3145 122.014 15.7839 122.174 16.1758C122.333 16.5677 122.561 16.8708 122.857 17.085C123.154 17.2946 123.505 17.3994 123.91 17.3994C124.375 17.3994 124.751 17.2969 125.038 17.0918C125.33 16.8867 125.535 16.5837 125.653 16.1826L125.667 16.1484L127.089 16.1416L127.075 16.2031C126.989 16.6862 126.813 17.11 126.549 17.4746C126.285 17.8392 125.931 18.1263 125.489 18.3359C125.052 18.541 124.525 18.6436 123.91 18.6436ZM131.543 18.5479C130.731 18.5479 130.144 18.3929 129.779 18.083C129.419 17.7686 129.239 17.2559 129.239 16.5449V12.2451H128.077V11.0762H129.239V9.20312H130.757V11.0762H132.349V12.2451H130.757V16.1826C130.757 16.5837 130.836 16.873 130.996 17.0508C131.155 17.224 131.42 17.3105 131.789 17.3105C131.898 17.3105 131.992 17.3083 132.069 17.3037C132.151 17.2992 132.244 17.2923 132.349 17.2832V18.4727C132.231 18.4909 132.103 18.5068 131.966 18.5205C131.83 18.5387 131.688 18.5479 131.543 18.5479ZM136.981 18.6436C136.256 18.6436 135.634 18.4886 135.115 18.1787C134.595 17.8643 134.194 17.4199 133.911 16.8457C133.633 16.2715 133.494 15.5924 133.494 14.8086V14.8018C133.494 14.027 133.633 13.3503 133.911 12.7715C134.194 12.1927 134.59 11.7415 135.101 11.418C135.616 11.0944 136.217 10.9326 136.906 10.9326C137.598 10.9326 138.193 11.0876 138.69 11.3975C139.191 11.7074 139.576 12.1426 139.845 12.7031C140.114 13.2591 140.248 13.9108 140.248 14.6582V15.1777H134.246V14.1182H139.51L138.799 15.1025V14.5078C138.799 13.9792 138.717 13.5417 138.553 13.1953C138.394 12.8444 138.173 12.5824 137.89 12.4092C137.607 12.236 137.282 12.1494 136.912 12.1494C136.543 12.1494 136.213 12.2406 135.921 12.4229C135.634 12.6006 135.406 12.8649 135.238 13.2158C135.074 13.5667 134.992 13.9974 134.992 14.5078V15.1025C134.992 15.5902 135.074 16.0072 135.238 16.3535C135.402 16.6999 135.634 16.9642 135.935 17.1465C136.24 17.3288 136.6 17.4199 137.015 17.4199C137.334 17.4199 137.607 17.3766 137.835 17.29C138.068 17.1989 138.257 17.0872 138.403 16.9551C138.553 16.8229 138.656 16.693 138.71 16.5654L138.738 16.5107H140.173L140.159 16.5723C140.096 16.8184 139.984 17.0645 139.825 17.3105C139.665 17.5521 139.453 17.7731 139.189 17.9736C138.929 18.1742 138.615 18.3359 138.245 18.459C137.881 18.582 137.459 18.6436 136.981 18.6436ZM144.579 18.623C143.959 18.623 143.417 18.4681 142.952 18.1582C142.492 17.8438 142.134 17.3994 141.879 16.8252C141.628 16.251 141.503 15.5742 141.503 14.7949V14.7812C141.503 13.9974 141.628 13.3184 141.879 12.7441C142.13 12.1699 142.485 11.7279 142.945 11.418C143.406 11.1035 143.95 10.9463 144.579 10.9463C144.921 10.9463 145.24 11.001 145.536 11.1104C145.832 11.2152 146.094 11.3656 146.322 11.5615C146.55 11.7529 146.73 11.9831 146.862 12.252H146.972V8.16406H148.462V18.5H146.972V17.3311H146.862C146.716 17.5999 146.532 17.8324 146.309 18.0283C146.085 18.2197 145.828 18.3678 145.536 18.4727C145.244 18.5729 144.925 18.623 144.579 18.623ZM145.003 17.3516C145.413 17.3516 145.769 17.249 146.069 17.0439C146.37 16.8389 146.6 16.5449 146.76 16.1621C146.919 15.7747 146.999 15.319 146.999 14.7949V14.7812C146.999 14.2526 146.917 13.7969 146.753 13.4141C146.593 13.0312 146.363 12.7373 146.062 12.5322C145.766 12.3226 145.413 12.2178 145.003 12.2178C144.593 12.2178 144.237 12.3226 143.936 12.5322C143.64 12.7373 143.412 13.0312 143.253 13.4141C143.098 13.7923 143.02 14.248 143.02 14.7812V14.7949C143.02 15.3236 143.098 15.7793 143.253 16.1621C143.412 16.5449 143.64 16.8389 143.936 17.0439C144.237 17.249 144.593 17.3516 145.003 17.3516Z" fill="white"/>
</svg>
