<svg width="90" height="28" viewBox="0 0 90 28" fill="none" xmlns="http://www.w3.org/2000/svg">
<rect width="90" height="28" rx="4" fill="#1969E8"/>
<path d="M20.6665 15.3333L17.9998 12.6667M17.9998 12.6667L20.6665 10M17.9998 12.6667H22.6665C23.3737 12.6667 24.052 12.9476 24.5521 13.4477C25.0522 13.9478 25.3332 14.6261 25.3332 15.3333C25.3332 16.0406 25.0522 16.7189 24.5521 17.219C24.052 17.719 23.3737 18 22.6665 18H21.9998M17.3332 15.3333L14.6665 12.6667L17.3332 10" stroke="white" stroke-width="1.33333" stroke-linecap="round" stroke-linejoin="round"/>
<path d="M35.5025 19V9.13574H39.3922C40.0667 9.13574 40.65 9.26107 41.1422 9.51172C41.6344 9.75781 42.0126 10.1064 42.277 10.5576C42.5458 11.0042 42.6803 11.5329 42.6803 12.1436V12.1572C42.6803 12.8226 42.5117 13.4082 42.1744 13.9141C41.8372 14.4154 41.3678 14.7686 40.7662 14.9736L42.9742 19H41.2037L39.1939 15.2061C39.1803 15.2061 39.1666 15.2061 39.1529 15.2061C39.1393 15.2061 39.1256 15.2061 39.1119 15.2061H37.0338V19H35.5025ZM37.0338 13.9619H39.2418C39.8297 13.9619 40.2854 13.8092 40.609 13.5039C40.9326 13.194 41.0943 12.7588 41.0943 12.1982V12.1846C41.0943 11.6377 40.9257 11.207 40.5885 10.8926C40.2558 10.5781 39.791 10.4209 39.1939 10.4209H37.0338V13.9619ZM47.0353 19.1436C46.3107 19.1436 45.6886 18.9886 45.1691 18.6787C44.6496 18.3643 44.2485 17.9199 43.966 17.3457C43.688 16.7715 43.549 16.0924 43.549 15.3086V15.3018C43.549 14.527 43.688 13.8503 43.966 13.2715C44.2485 12.6927 44.645 12.2415 45.1554 11.918C45.6704 11.5944 46.272 11.4326 46.9601 11.4326C47.6528 11.4326 48.2476 11.5876 48.7443 11.8975C49.2456 12.2074 49.6307 12.6426 49.8996 13.2031C50.1684 13.7591 50.3029 14.4108 50.3029 15.1582V15.6777H44.3009V14.6182H49.5646L48.8537 15.6025V15.0078C48.8537 14.4792 48.7716 14.0417 48.6076 13.6953C48.4481 13.3444 48.227 13.0824 47.9445 12.9092C47.6619 12.736 47.3361 12.6494 46.967 12.6494C46.5978 12.6494 46.2674 12.7406 45.9757 12.9229C45.6886 13.1006 45.4608 13.3649 45.2921 13.7158C45.1281 14.0667 45.0461 14.4974 45.0461 15.0078V15.6025C45.0461 16.0902 45.1281 16.5072 45.2921 16.8535C45.4562 17.1999 45.6886 17.4642 45.9894 17.6465C46.2948 17.8288 46.6548 17.9199 47.0695 17.9199C47.3885 17.9199 47.6619 17.8766 47.8898 17.79C48.1222 17.6989 48.3114 17.5872 48.4572 17.4551C48.6076 17.3229 48.7101 17.193 48.7648 17.0654L48.7921 17.0107H50.2277L50.214 17.0723C50.1502 17.3184 50.0386 17.5645 49.8791 17.8105C49.7196 18.0521 49.5076 18.2731 49.2433 18.4736C48.9836 18.6742 48.6691 18.8359 48.3 18.959C47.9354 19.082 47.5138 19.1436 47.0353 19.1436ZM53.3864 19L50.6999 11.5762H52.279L54.1316 17.4961H54.2409L56.0866 11.5762H57.6521L54.9724 19H53.3864ZM58.6096 19V11.5762H60.0999V19H58.6096ZM59.3616 10.25C59.1064 10.25 58.8876 10.1589 58.7054 9.97656C58.5231 9.79427 58.4319 9.57552 58.4319 9.32031C58.4319 9.0651 58.5231 8.84863 58.7054 8.6709C58.8876 8.48861 59.1064 8.39746 59.3616 8.39746C59.6168 8.39746 59.8356 8.48861 60.0179 8.6709C60.2001 8.84863 60.2913 9.0651 60.2913 9.32031C60.2913 9.57552 60.2001 9.79427 60.0179 9.97656C59.8356 10.1589 59.6168 10.25 59.3616 10.25ZM63.7371 19L61.0506 11.5762H62.6297L64.4823 17.4961H64.5916L66.4373 11.5762H68.0028L65.3231 19H63.7371ZM71.7699 19.1436C71.0453 19.1436 70.4232 18.9886 69.9037 18.6787C69.3842 18.3643 68.9831 17.9199 68.7006 17.3457C68.4226 16.7715 68.2836 16.0924 68.2836 15.3086V15.3018C68.2836 14.527 68.4226 13.8503 68.7006 13.2715C68.9831 12.6927 69.3796 12.2415 69.89 11.918C70.405 11.5944 71.0066 11.4326 71.6947 11.4326C72.3874 11.4326 72.9822 11.5876 73.4789 11.8975C73.9802 12.2074 74.3653 12.6426 74.6342 13.2031C74.9031 13.7591 75.0375 14.4108 75.0375 15.1582V15.6777H69.0355V14.6182H74.2992L73.5883 15.6025V15.0078C73.5883 14.4792 73.5062 14.0417 73.3422 13.6953C73.1827 13.3444 72.9617 13.0824 72.6791 12.9092C72.3965 12.736 72.0707 12.6494 71.7016 12.6494C71.3324 12.6494 71.002 12.7406 70.7104 12.9229C70.4232 13.1006 70.1954 13.3649 70.0268 13.7158C69.8627 14.0667 69.7807 14.4974 69.7807 15.0078V15.6025C69.7807 16.0902 69.8627 16.5072 70.0268 16.8535C70.1908 17.1999 70.4232 17.4642 70.724 17.6465C71.0294 17.8288 71.3894 17.9199 71.8041 17.9199C72.1231 17.9199 72.3965 17.8766 72.6244 17.79C72.8568 17.6989 73.046 17.5872 73.1918 17.4551C73.3422 17.3229 73.4447 17.193 73.4994 17.0654L73.5268 17.0107H74.9623L74.9486 17.0723C74.8848 17.3184 74.7732 17.5645 74.6137 17.8105C74.4542 18.0521 74.2423 18.2731 73.9779 18.4736C73.7182 18.6742 73.4037 18.8359 73.0346 18.959C72.67 19.082 72.2484 19.1436 71.7699 19.1436Z" fill="white"/>
</svg>
