<svg width="44" height="44" viewBox="0 0 44 44" fill="none" xmlns="http://www.w3.org/2000/svg">
<rect x="1" y="1" width="42" height="42" rx="9" fill="#EBECF0"/>
<rect x="1" y="1" width="42" height="42" rx="9" stroke="#FF1D6C" stroke-width="2"/>
<path fill-rule="evenodd" clip-rule="evenodd" d="M15.3327 18.6665C14.4122 18.6665 13.666 19.4127 13.666 20.3332V26.9998C13.666 27.9203 14.4122 28.6665 15.3327 28.6665H28.666C29.5865 28.6665 30.3327 27.9203 30.3327 26.9998V20.3332C30.3327 19.4127 29.5865 18.6665 28.666 18.6665H27.3011L22.8327 14.9429V14.4998C22.8327 14.0396 22.4596 13.6665 21.9993 13.6665C21.5391 13.6665 21.166 14.0396 21.166 14.4998V14.9429L16.6976 18.6665H15.3327ZM19.3011 18.6665L21.9993 16.4179L24.6976 18.6665H19.3011ZM25.7493 21.1665C26.2096 21.1665 26.5827 21.5396 26.5827 21.9998V25.3332C26.5827 25.7934 26.2096 26.1665 25.7493 26.1665C25.2891 26.1665 24.916 25.7934 24.916 25.3332V21.9998C24.916 21.5396 25.2891 21.1665 25.7493 21.1665ZM22.8327 21.9998C22.8327 21.5396 22.4596 21.1665 21.9993 21.1665C21.5391 21.1665 21.166 21.5396 21.166 21.9998V25.3332C21.166 25.7934 21.5391 26.1665 21.9993 26.1665C22.4596 26.1665 22.8327 25.7934 22.8327 25.3332V21.9998ZM18.2493 21.1665C18.7096 21.1665 19.0827 21.5396 19.0827 21.9998V25.3332C19.0827 25.7934 18.7096 26.1665 18.2493 26.1665C17.7891 26.1665 17.416 25.7934 17.416 25.3332V21.9998C17.416 21.5396 17.7891 21.1665 18.2493 21.1665Z" fill="#606572"/>
</svg>
