<svg width="16" height="16" viewBox="0 0 16 16" fill="none" xmlns="http://www.w3.org/2000/svg">
    <path fill-rule="evenodd" clip-rule="evenodd" d="M7.61091 2.12505C6.34188 3.02625 4.89145 3.53149 3.41903 3.64076C3.08258 3.66573 2.80825 3.94074 2.81255 4.27808C2.91124 12.0232 4.90541 12.8165 7.7534 13.9494L7.77367 13.9575C7.91942 14.0155 8.08278 14.0155 8.22853 13.9575L8.2488 13.9494C11.0968 12.8165 13.091 12.0232 13.1897 4.27808C13.1939 3.94074 12.9196 3.66573 12.5832 3.64076C11.1108 3.53149 9.66032 3.02625 8.39129 2.12505C8.15834 1.95962 7.84386 1.95962 7.61091 2.12505ZM6.69082 10.1742C7.04238 10.3894 7.46319 10.497 7.95325 10.497C8.36447 10.497 8.72243 10.4224 9.02711 10.2733C9.3318 10.122 9.57257 9.91321 9.74941 9.64688C9.92626 9.37841 10.0285 9.07053 10.0562 8.72322H8.95041C8.91632 8.90007 8.85346 9.05028 8.76184 9.17386C8.67022 9.29744 8.55623 9.39226 8.41987 9.45831C8.28564 9.52223 8.13329 9.55419 7.96284 9.55419C7.72207 9.55419 7.5122 9.49027 7.33322 9.36243C7.15637 9.23246 7.01895 9.04815 6.92093 8.80952C6.82292 8.56875 6.77392 8.28111 6.77392 7.94659C6.77392 7.61633 6.82292 7.33295 6.92093 7.09645C7.02108 6.85994 7.16064 6.67883 7.33961 6.55312C7.51859 6.42528 7.72633 6.36136 7.96284 6.36136C8.24196 6.36136 8.46461 6.44126 8.63081 6.60107C8.79913 6.75874 8.90566 6.95582 8.95041 7.19233H10.0562C10.0307 6.83864 9.92626 6.52969 9.74302 6.26548C9.55978 5.99915 9.31369 5.79354 9.00474 5.64865C8.69792 5.50163 8.34529 5.42813 7.94686 5.42813C7.46745 5.42813 7.05197 5.53572 6.70041 5.75092C6.35098 5.96399 6.08038 6.26229 5.88862 6.64581C5.69686 7.0272 5.60098 7.46719 5.60098 7.96577C5.60098 8.46222 5.69473 8.90114 5.88223 9.28253C6.07186 9.66179 6.34139 9.95902 6.69082 10.1742Z" fill="#DA0007"/>
    <path d="M7.95325 10.497C7.46319 10.497 7.04238 10.3894 6.69082 10.1742C6.34139 9.95902 6.07186 9.66179 5.88223 9.28253C5.69473 8.90114 5.60098 8.46222 5.60098 7.96577C5.60098 7.46719 5.69686 7.0272 5.88862 6.64581C6.08038 6.26229 6.35098 5.96399 6.70041 5.75092C7.05197 5.53572 7.46745 5.42813 7.94686 5.42813C8.34529 5.42813 8.69792 5.50163 9.00474 5.64865C9.31369 5.79354 9.55978 5.99915 9.74302 6.26548C9.92626 6.52969 10.0307 6.83864 10.0562 7.19233H8.95041C8.90566 6.95582 8.79913 6.75874 8.63081 6.60107C8.46461 6.44126 8.24196 6.36136 7.96284 6.36136C7.72633 6.36136 7.51859 6.42528 7.33961 6.55312C7.16064 6.67883 7.02108 6.85994 6.92093 7.09645C6.82292 7.33295 6.77392 7.61633 6.77392 7.94659C6.77392 8.28111 6.82292 8.56875 6.92093 8.80952C7.01895 9.04815 7.15637 9.23246 7.33322 9.36243C7.5122 9.49027 7.72207 9.55419 7.96284 9.55419C8.13329 9.55419 8.28564 9.52223 8.41987 9.45831C8.55623 9.39226 8.67022 9.29744 8.76184 9.17386C8.85346 9.05028 8.91632 8.90007 8.95041 8.72322H10.0562C10.0285 9.07053 9.92626 9.37841 9.74941 9.64688C9.57257 9.91321 9.3318 10.122 9.02711 10.2733C8.72243 10.4224 8.36447 10.497 7.95325 10.497Z" fill="white"/>
</svg>
