<svg width="124" height="20" viewBox="0 0 124 20" fill="none" xmlns="http://www.w3.org/2000/svg">
<path fill-rule="evenodd" clip-rule="evenodd" d="M3.37593 5.37593C3.61025 5.14162 3.99014 5.14162 4.22446 5.37593L8.0002 9.15167L11.7759 5.37593C12.0102 5.14162 12.3901 5.14162 12.6245 5.37593C12.8588 5.61025 12.8588 5.99014 12.6245 6.22446L8.84872 10.0002L12.6245 13.7759C12.8588 14.0102 12.8588 14.3901 12.6245 14.6245C12.3901 14.8588 12.0102 14.8588 11.7759 14.6245L8.0002 10.8487L4.22446 14.6245C3.99014 14.8588 3.61025 14.8588 3.37593 14.6245C3.14162 14.3901 3.14162 14.0102 3.37593 13.7759L7.15167 10.0002L3.37593 6.22446C3.14162 5.99014 3.14162 5.61025 3.37593 5.37593Z" fill="#ADADAD"/>
<path d="M23.6242 15.2324C22.731 15.2324 21.9585 15.0228 21.3068 14.6035C20.6551 14.1842 20.1516 13.5895 19.7961 12.8193C19.4452 12.0492 19.2697 11.1354 19.2697 10.0781V10.0645C19.2697 9.0026 19.4452 8.08659 19.7961 7.31641C20.1516 6.54622 20.6529 5.9515 21.3 5.53223C21.9517 5.11296 22.7242 4.90332 23.6174 4.90332C24.3101 4.90332 24.939 5.04004 25.5041 5.31348C26.0738 5.58236 26.5432 5.95833 26.9123 6.44141C27.2814 6.91992 27.5139 7.47363 27.6096 8.10254L27.6027 8.11621H26.3654L26.3586 8.10254C26.2492 7.67871 26.0646 7.31413 25.8049 7.00879C25.5451 6.69889 25.2284 6.45964 24.8547 6.29102C24.4855 6.1224 24.0731 6.03809 23.6174 6.03809C22.9885 6.03809 22.4416 6.20215 21.9768 6.53027C21.5165 6.8584 21.161 7.32324 20.9104 7.9248C20.6597 8.52637 20.5344 9.23958 20.5344 10.0645V10.0781C20.5344 10.8984 20.6597 11.6094 20.9104 12.2109C21.161 12.8125 21.5165 13.2773 21.9768 13.6055C22.4416 13.9336 22.9908 14.0977 23.6242 14.0977C24.0845 14.0977 24.5015 14.0247 24.8752 13.8789C25.2489 13.7285 25.5633 13.5166 25.8186 13.2432C26.0738 12.9652 26.2515 12.637 26.3518 12.2588L26.3654 12.2451H27.6096V12.2588C27.5002 12.8604 27.2632 13.3844 26.8986 13.8311C26.534 14.2731 26.0715 14.6172 25.5109 14.8633C24.9549 15.1094 24.326 15.2324 23.6242 15.2324ZM29.452 15V4.70508H30.6414V15H29.452ZM35.7925 15.1299C35.0906 15.1299 34.4868 14.9749 33.9809 14.665C33.4796 14.3551 33.0923 13.9176 32.8188 13.3525C32.5499 12.7829 32.4155 12.113 32.4155 11.3428V11.3359C32.4155 10.5749 32.5499 9.90723 32.8188 9.33301C33.0923 8.75879 33.4774 8.3099 33.9741 7.98633C34.4708 7.66276 35.0519 7.50098 35.7173 7.50098C36.3872 7.50098 36.9614 7.65592 37.4399 7.96582C37.923 8.27572 38.2921 8.70866 38.5473 9.26465C38.8071 9.81608 38.937 10.4587 38.937 11.1924V11.6572H33.0307V10.707H38.3286L37.7407 11.5752V11.1035C37.7407 10.5247 37.6541 10.0485 37.4809 9.6748C37.3078 9.30111 37.0685 9.02311 36.7632 8.84082C36.4578 8.65397 36.1069 8.56055 35.7104 8.56055C35.3139 8.56055 34.9585 8.65853 34.644 8.85449C34.3341 9.0459 34.088 9.33073 33.9057 9.70898C33.7235 10.0872 33.6323 10.5521 33.6323 11.1035V11.5752C33.6323 12.0993 33.7212 12.5482 33.8989 12.9219C34.0766 13.291 34.3296 13.5758 34.6577 13.7764C34.9858 13.9723 35.3732 14.0703 35.8198 14.0703C36.1525 14.0703 36.4419 14.0247 36.688 13.9336C36.9341 13.8424 37.1369 13.7262 37.2964 13.585C37.4559 13.4437 37.5675 13.3001 37.6313 13.1543L37.6587 13.0928H38.8481L38.8345 13.1475C38.7707 13.3981 38.6567 13.6419 38.4927 13.8789C38.3332 14.1113 38.1258 14.3232 37.8706 14.5146C37.6154 14.7015 37.3123 14.8519 36.9614 14.9658C36.6151 15.0752 36.2254 15.1299 35.7925 15.1299ZM42.6661 15.1299C42.2013 15.1299 41.782 15.041 41.4083 14.8633C41.0392 14.6855 40.7452 14.4326 40.5265 14.1045C40.3123 13.7764 40.2052 13.389 40.2052 12.9424V12.9287C40.2052 12.4912 40.31 12.1175 40.5196 11.8076C40.7293 11.4932 41.0346 11.2471 41.4357 11.0693C41.8367 10.8916 42.3221 10.7868 42.8917 10.7549L45.5987 10.5908V11.541L43.0353 11.7051C42.4747 11.737 42.0646 11.8532 41.8048 12.0537C41.5496 12.2542 41.422 12.5368 41.422 12.9014V12.915C41.422 13.2887 41.5633 13.5804 41.8458 13.79C42.1284 13.9951 42.4838 14.0977 42.9122 14.0977C43.3178 14.0977 43.6779 14.0179 43.9923 13.8584C44.3068 13.6943 44.5529 13.4733 44.7306 13.1953C44.9129 12.9173 45.004 12.6029 45.004 12.252V9.95508C45.004 9.49935 44.865 9.15299 44.587 8.91602C44.3136 8.67448 43.9012 8.55371 43.3497 8.55371C42.9077 8.55371 42.5454 8.63346 42.2628 8.79297C41.9803 8.94792 41.7911 9.16895 41.6954 9.45605L41.6886 9.47656H40.4991L40.506 9.43555C40.5698 9.04818 40.7293 8.71094 40.9845 8.42383C41.2443 8.13216 41.5792 7.90658 41.9894 7.74707C42.3995 7.58301 42.8667 7.50098 43.3907 7.50098C43.9923 7.50098 44.5004 7.59896 44.9152 7.79492C45.3344 7.99089 45.6512 8.27344 45.8654 8.64258C46.0841 9.00716 46.1935 9.44466 46.1935 9.95508V15H45.004V13.9131H44.8946C44.7397 14.1729 44.5506 14.3939 44.3273 14.5762C44.1085 14.7585 43.8601 14.8975 43.5821 14.9932C43.3042 15.0843 42.9988 15.1299 42.6661 15.1299ZM48.2273 15V7.63086H49.4168V8.72461H49.5261C49.6674 8.33724 49.9067 8.03646 50.2439 7.82227C50.5811 7.60807 50.9981 7.50098 51.4949 7.50098C51.6088 7.50098 51.7205 7.50781 51.8298 7.52148C51.9438 7.5306 52.0304 7.53971 52.0896 7.54883V8.7041C51.9666 8.68132 51.8458 8.66536 51.7273 8.65625C51.6134 8.64258 51.4903 8.63574 51.3582 8.63574C50.9799 8.63574 50.6449 8.71094 50.3533 8.86133C50.0616 9.01172 49.8315 9.22135 49.6629 9.49023C49.4988 9.75911 49.4168 10.0736 49.4168 10.4336V15H48.2273ZM60.6006 15.2324C59.8806 15.2324 59.2517 15.1162 58.7139 14.8838C58.1807 14.6468 57.7569 14.3232 57.4424 13.9131C57.1325 13.4984 56.9525 13.0244 56.9024 12.4912L56.8955 12.416H58.126L58.1329 12.4912C58.1648 12.8193 58.2901 13.1042 58.5088 13.3457C58.7321 13.5827 59.0284 13.7673 59.3975 13.8994C59.7712 14.0316 60.195 14.0977 60.669 14.0977C61.1156 14.0977 61.5121 14.027 61.8584 13.8857C62.2093 13.7399 62.4851 13.5394 62.6856 13.2842C62.8861 13.029 62.9864 12.735 62.9864 12.4023V12.3955C62.9864 11.9854 62.836 11.6413 62.5352 11.3633C62.2344 11.0807 61.7445 10.8643 61.0655 10.7139L59.9717 10.4746C58.9828 10.2559 58.2627 9.91862 57.8116 9.46289C57.3649 9.0026 57.1416 8.41471 57.1416 7.69922V7.69238C57.1462 7.14551 57.2943 6.66243 57.586 6.24316C57.8822 5.82389 58.2901 5.49577 58.8096 5.25879C59.3337 5.02181 59.9353 4.90332 60.6143 4.90332C61.2705 4.90332 61.8516 5.02181 62.3575 5.25879C62.8633 5.49121 63.2644 5.80566 63.5606 6.20215C63.8614 6.59863 64.0277 7.04297 64.0596 7.53516L64.0664 7.63086H62.836L62.8223 7.54199C62.7767 7.25033 62.6582 6.99284 62.4668 6.76953C62.2754 6.54167 62.0202 6.36165 61.7012 6.22949C61.3822 6.09733 61.0085 6.03353 60.5801 6.03809C60.17 6.03809 59.8008 6.10189 59.4727 6.22949C59.1446 6.3571 58.8825 6.54167 58.6866 6.7832C58.4952 7.02018 58.3995 7.31185 58.3995 7.6582V7.66504C58.3995 8.05697 58.5453 8.38737 58.837 8.65625C59.1286 8.92513 59.6094 9.13249 60.2793 9.27832L61.3731 9.52441C62.0612 9.6748 62.6149 9.87077 63.0342 10.1123C63.4535 10.3538 63.7588 10.6501 63.9502 11.001C64.1462 11.3473 64.2442 11.7575 64.2442 12.2314V12.2383C64.2442 12.8535 64.0938 13.3844 63.793 13.8311C63.4922 14.2777 63.0684 14.624 62.5215 14.8701C61.9746 15.1117 61.3343 15.2324 60.6006 15.2324ZM69.0124 15.1299C68.3106 15.1299 67.7067 14.9749 67.2009 14.665C66.6996 14.3551 66.3122 13.9176 66.0387 13.3525C65.7699 12.7829 65.6354 12.113 65.6354 11.3428V11.3359C65.6354 10.5749 65.7699 9.90723 66.0387 9.33301C66.3122 8.75879 66.6973 8.3099 67.194 7.98633C67.6908 7.66276 68.2718 7.50098 68.9372 7.50098C69.6071 7.50098 70.1813 7.65592 70.6598 7.96582C71.1429 8.27572 71.5121 8.70866 71.7673 9.26465C72.027 9.81608 72.1569 10.4587 72.1569 11.1924V11.6572H66.2507V10.707H71.5485L70.9606 11.5752V11.1035C70.9606 10.5247 70.874 10.0485 70.7009 9.6748C70.5277 9.30111 70.2884 9.02311 69.9831 8.84082C69.6777 8.65397 69.3268 8.56055 68.9304 8.56055C68.5339 8.56055 68.1784 8.65853 67.8639 8.85449C67.554 9.0459 67.308 9.33073 67.1257 9.70898C66.9434 10.0872 66.8522 10.5521 66.8522 11.1035V11.5752C66.8522 12.0993 66.9411 12.5482 67.1188 12.9219C67.2966 13.291 67.5495 13.5758 67.8776 13.7764C68.2057 13.9723 68.5931 14.0703 69.0397 14.0703C69.3724 14.0703 69.6618 14.0247 69.9079 13.9336C70.154 13.8424 70.3568 13.7262 70.5163 13.585C70.6758 13.4437 70.7874 13.3001 70.8512 13.1543L70.8786 13.0928H72.068L72.0544 13.1475C71.9906 13.3981 71.8766 13.6419 71.7126 13.8789C71.5531 14.1113 71.3457 14.3232 71.0905 14.5146C70.8353 14.7015 70.5322 14.8519 70.1813 14.9658C69.835 15.0752 69.4453 15.1299 69.0124 15.1299ZM73.931 15V4.70508H75.1204V15H73.931ZM80.2714 15.1299C79.5696 15.1299 78.9658 14.9749 78.4599 14.665C77.9586 14.3551 77.5713 13.9176 77.2978 13.3525C77.0289 12.7829 76.8945 12.113 76.8945 11.3428V11.3359C76.8945 10.5749 77.0289 9.90723 77.2978 9.33301C77.5713 8.75879 77.9563 8.3099 78.4531 7.98633C78.9498 7.66276 79.5309 7.50098 80.1963 7.50098C80.8662 7.50098 81.4404 7.65592 81.9189 7.96582C82.402 8.27572 82.7711 8.70866 83.0263 9.26465C83.2861 9.81608 83.416 10.4587 83.416 11.1924V11.6572H77.5097V10.707H82.8076L82.2197 11.5752V11.1035C82.2197 10.5247 82.1331 10.0485 81.9599 9.6748C81.7867 9.30111 81.5475 9.02311 81.2421 8.84082C80.9368 8.65397 80.5859 8.56055 80.1894 8.56055C79.7929 8.56055 79.4375 8.65853 79.123 8.85449C78.8131 9.0459 78.567 9.33073 78.3847 9.70898C78.2024 10.0872 78.1113 10.5521 78.1113 11.1035V11.5752C78.1113 12.0993 78.2002 12.5482 78.3779 12.9219C78.5556 13.291 78.8086 13.5758 79.1367 13.7764C79.4648 13.9723 79.8522 14.0703 80.2988 14.0703C80.6315 14.0703 80.9209 14.0247 81.167 13.9336C81.413 13.8424 81.6158 13.7262 81.7754 13.585C81.9349 13.4437 82.0465 13.3001 82.1103 13.1543L82.1377 13.0928H83.3271L83.3134 13.1475C83.2496 13.3981 83.1357 13.6419 82.9716 13.8789C82.8121 14.1113 82.6048 14.3232 82.3496 14.5146C82.0944 14.7015 81.7913 14.8519 81.4404 14.9658C81.094 15.0752 80.7044 15.1299 80.2714 15.1299ZM88.1363 15.1299C87.4482 15.1299 86.8512 14.9727 86.3453 14.6582C85.8394 14.3438 85.4475 13.8994 85.1695 13.3252C84.8915 12.751 84.7525 12.0742 84.7525 11.2949V11.2812C84.7525 10.5156 84.8893 9.85026 85.1627 9.28516C85.4407 8.72005 85.8326 8.28255 86.3385 7.97266C86.8443 7.6582 87.4413 7.50098 88.1295 7.50098C88.7265 7.50098 89.2415 7.60579 89.6744 7.81543C90.1074 8.02507 90.4537 8.30762 90.7135 8.66309C90.9732 9.014 91.1396 9.4082 91.2125 9.8457L91.2193 9.88672H90.0367L90.0299 9.86621C89.9387 9.50163 89.7314 9.19173 89.4078 8.93652C89.0842 8.68132 88.6581 8.55371 88.1295 8.55371C87.6874 8.55371 87.3046 8.66536 86.981 8.88867C86.6575 9.11198 86.4068 9.42871 86.2291 9.83887C86.0559 10.2445 85.9693 10.7253 85.9693 11.2812V11.2949C85.9693 11.86 86.0582 12.3522 86.2359 12.7715C86.4137 13.1862 86.6643 13.5075 86.9879 13.7354C87.3115 13.9632 87.692 14.0771 88.1295 14.0771C88.6262 14.0771 89.0318 13.9701 89.3463 13.7559C89.6607 13.5417 89.8863 13.2295 90.023 12.8193L90.0367 12.7783L91.2125 12.7715L91.1988 12.8467C91.0986 13.2887 90.9208 13.6829 90.6656 14.0293C90.4104 14.3711 90.0732 14.64 89.6539 14.8359C89.2346 15.0319 88.7288 15.1299 88.1363 15.1299ZM95.5705 15.0547C94.814 15.0547 94.2649 14.902 93.9231 14.5967C93.5858 14.2913 93.4172 13.7878 93.4172 13.0859V8.61523H92.2551V7.63086H93.4172V5.72363H94.6477V7.63086H96.261V8.61523H94.6477V12.7852C94.6477 13.2181 94.7297 13.5303 94.8938 13.7217C95.0578 13.9085 95.3313 14.002 95.7141 14.002C95.8189 14.002 95.9078 13.9997 95.9807 13.9951C96.0582 13.9906 96.1516 13.9837 96.261 13.9746V14.9863C96.147 15.0046 96.0331 15.0205 95.9192 15.0342C95.8052 15.0479 95.689 15.0547 95.5705 15.0547ZM97.9257 15V7.63086H99.1151V15H97.9257ZM98.5272 6.20898C98.3039 6.20898 98.1102 6.12923 97.9462 5.96973C97.7867 5.80566 97.7069 5.61198 97.7069 5.38867C97.7069 5.16081 97.7867 4.96712 97.9462 4.80762C98.1102 4.64811 98.3039 4.56836 98.5272 4.56836C98.7551 4.56836 98.9488 4.64811 99.1083 4.80762C99.2678 4.96712 99.3475 5.16081 99.3475 5.38867C99.3475 5.61198 99.2678 5.80566 99.1083 5.96973C98.9488 6.12923 98.7551 6.20898 98.5272 6.20898ZM104.246 15.1299C103.548 15.1299 102.945 14.9772 102.434 14.6719C101.928 14.362 101.536 13.9222 101.258 13.3525C100.985 12.7829 100.848 12.1061 100.848 11.3223V11.3086C100.848 10.5202 100.985 9.84115 101.258 9.27148C101.536 8.70182 101.928 8.26432 102.434 7.95898C102.945 7.65365 103.548 7.50098 104.246 7.50098C104.947 7.50098 105.551 7.65365 106.057 7.95898C106.563 8.26432 106.953 8.70182 107.226 9.27148C107.504 9.84115 107.643 10.5202 107.643 11.3086V11.3223C107.643 12.1061 107.504 12.7829 107.226 13.3525C106.953 13.9222 106.563 14.362 106.057 14.6719C105.551 14.9772 104.947 15.1299 104.246 15.1299ZM104.246 14.0771C104.71 14.0771 105.105 13.9678 105.428 13.749C105.752 13.5303 105.998 13.2158 106.167 12.8057C106.34 12.3955 106.426 11.901 106.426 11.3223V11.3086C106.426 10.7253 106.34 10.2285 106.167 9.81836C105.998 9.4082 105.752 9.09603 105.428 8.88184C105.105 8.66309 104.71 8.55371 104.246 8.55371C103.781 8.55371 103.387 8.66309 103.063 8.88184C102.739 9.09603 102.491 9.4082 102.318 9.81836C102.149 10.2285 102.065 10.7253 102.065 11.3086V11.3223C102.065 11.901 102.149 12.3955 102.318 12.8057C102.491 13.2158 102.739 13.5303 103.063 13.749C103.387 13.9678 103.781 14.0771 104.246 14.0771ZM109.349 15V7.63086H110.538V8.73828H110.648C110.834 8.34635 111.103 8.04329 111.454 7.8291C111.805 7.61035 112.252 7.50098 112.794 7.50098C113.624 7.50098 114.259 7.73796 114.701 8.21191C115.148 8.68132 115.371 9.35352 115.371 10.2285V15H114.182V10.5156C114.182 9.85026 114.041 9.35807 113.758 9.03906C113.48 8.71549 113.047 8.55371 112.459 8.55371C112.067 8.55371 111.728 8.63802 111.441 8.80664C111.153 8.97526 110.93 9.21452 110.771 9.52441C110.616 9.83431 110.538 10.2057 110.538 10.6387V15H109.349ZM119.914 15.1299C119.367 15.1299 118.884 15.0479 118.465 14.8838C118.045 14.7152 117.708 14.4805 117.453 14.1797C117.202 13.8789 117.054 13.5257 117.009 13.1201H118.225C118.326 13.4255 118.522 13.6715 118.813 13.8584C119.105 14.0452 119.485 14.1387 119.955 14.1387C120.288 14.1387 120.579 14.0908 120.83 13.9951C121.085 13.8949 121.286 13.7604 121.431 13.5918C121.577 13.4186 121.65 13.2204 121.65 12.9971V12.9834C121.65 12.7327 121.55 12.5208 121.349 12.3477C121.149 12.1699 120.821 12.0264 120.365 11.917L119.223 11.6436C118.763 11.5342 118.385 11.3929 118.089 11.2197C117.792 11.042 117.574 10.8255 117.432 10.5703C117.291 10.3105 117.221 10.0052 117.221 9.6543V9.64746C117.221 9.2373 117.339 8.87044 117.576 8.54688C117.818 8.22331 118.146 7.9681 118.56 7.78125C118.975 7.5944 119.442 7.50098 119.962 7.50098C120.477 7.50098 120.932 7.58301 121.329 7.74707C121.73 7.90658 122.051 8.13444 122.293 8.43066C122.539 8.72689 122.689 9.07552 122.744 9.47656H121.575C121.498 9.1849 121.32 8.94792 121.042 8.76562C120.764 8.58333 120.401 8.49219 119.955 8.49219C119.663 8.49219 119.403 8.54004 119.176 8.63574C118.948 8.72689 118.768 8.85449 118.636 9.01855C118.503 9.18262 118.437 9.37402 118.437 9.59277V9.60645C118.437 9.77051 118.481 9.91634 118.567 10.0439C118.654 10.1715 118.788 10.2832 118.971 10.3789C119.153 10.4746 119.387 10.5589 119.675 10.6318L120.809 10.9053C121.502 11.0739 122.017 11.3154 122.354 11.6299C122.696 11.9443 122.867 12.3659 122.867 12.8945V12.9082C122.867 13.3457 122.737 13.7331 122.477 14.0703C122.218 14.403 121.864 14.6628 121.418 14.8496C120.976 15.0365 120.474 15.1299 119.914 15.1299Z" fill="#ADADAD"/>
</svg>
