<svg width="34" height="22" viewBox="0 0 34 22" fill="none" xmlns="http://www.w3.org/2000/svg">
<rect x="0.5" y="0.5" width="33" height="21" rx="3.5" stroke="white" stroke-opacity="0.3"/>
<path d="M10.2383 7V15H8.78906V7H10.2383ZM13.4717 15.1211C13.0915 15.1211 12.749 15.0534 12.4443 14.918C12.1423 14.7799 11.9027 14.5768 11.7256 14.3086C11.5511 14.0404 11.4639 13.7096 11.4639 13.3164C11.4639 12.9779 11.5264 12.6979 11.6514 12.4766C11.7764 12.2552 11.9469 12.0781 12.1631 11.9453C12.3792 11.8125 12.6227 11.7122 12.8936 11.6445C13.167 11.5742 13.4495 11.5234 13.7412 11.4922C14.0928 11.4557 14.3779 11.4232 14.5967 11.3945C14.8154 11.3633 14.9743 11.3164 15.0732 11.2539C15.1748 11.1888 15.2256 11.0885 15.2256 10.9531V10.9297C15.2256 10.6354 15.1383 10.4076 14.9639 10.2461C14.7894 10.0846 14.5381 10.0039 14.21 10.0039C13.8636 10.0039 13.5889 10.0794 13.3857 10.2305C13.1852 10.3815 13.0498 10.5599 12.9795 10.7656L11.6592 10.5781C11.7633 10.2135 11.9352 9.90885 12.1748 9.66406C12.4144 9.41667 12.7074 9.23177 13.0537 9.10937C13.4001 8.98438 13.7829 8.92188 14.2021 8.92188C14.4912 8.92188 14.779 8.95573 15.0654 9.02344C15.3519 9.09115 15.6136 9.20312 15.8506 9.35937C16.0876 9.51302 16.2777 9.72266 16.4209 9.98828C16.5667 10.2539 16.6396 10.5859 16.6396 10.9844V15H15.2803V14.1758H15.2334C15.1475 14.3424 15.0264 14.4987 14.8701 14.6445C14.7165 14.7878 14.5225 14.9036 14.2881 14.9922C14.0563 15.0781 13.7842 15.1211 13.4717 15.1211ZM13.8389 14.082C14.1227 14.082 14.3688 14.026 14.5771 13.9141C14.7855 13.7995 14.9456 13.6484 15.0576 13.4609C15.1722 13.2734 15.2295 13.069 15.2295 12.8477V12.1406C15.1852 12.1771 15.1097 12.2109 15.0029 12.2422C14.8988 12.2734 14.7816 12.3008 14.6514 12.3242C14.5212 12.3477 14.3923 12.3685 14.2646 12.3867C14.137 12.4049 14.0264 12.4206 13.9326 12.4336C13.7217 12.4622 13.5329 12.5091 13.3662 12.5742C13.1995 12.6393 13.068 12.7305 12.9717 12.8477C12.8753 12.9622 12.8271 13.1107 12.8271 13.293C12.8271 13.5534 12.9222 13.75 13.1123 13.8828C13.3024 14.0156 13.5446 14.082 13.8389 14.082ZM24.9717 9.69922H23.5107C23.4691 9.45964 23.3923 9.2474 23.2803 9.0625C23.1683 8.875 23.029 8.71615 22.8623 8.58594C22.6956 8.45573 22.5055 8.35807 22.292 8.29297C22.0811 8.22526 21.8532 8.19141 21.6084 8.19141C21.1735 8.19141 20.7881 8.30078 20.4521 8.51953C20.1162 8.73568 19.8532 9.05339 19.6631 9.47266C19.473 9.88932 19.3779 10.3984 19.3779 11C19.3779 11.612 19.473 12.1276 19.6631 12.5469C19.8558 12.9635 20.1188 13.2786 20.4521 13.4922C20.7881 13.7031 21.1722 13.8086 21.6045 13.8086C21.8441 13.8086 22.068 13.7773 22.2764 13.7148C22.4873 13.6497 22.6761 13.5547 22.8428 13.4297C23.012 13.3047 23.154 13.151 23.2686 12.9687C23.3857 12.7865 23.4665 12.5781 23.5107 12.3437L24.9717 12.3516C24.917 12.7318 24.7985 13.0885 24.6162 13.4219C24.4365 13.7552 24.2008 14.0495 23.9092 14.3047C23.6175 14.5573 23.2764 14.7552 22.8857 14.8984C22.4951 15.0391 22.0615 15.1094 21.585 15.1094C20.8818 15.1094 20.2542 14.9466 19.7021 14.6211C19.1501 14.2956 18.7152 13.8255 18.3975 13.2109C18.0798 12.5964 17.9209 11.8594 17.9209 11C17.9209 10.138 18.0811 9.40104 18.4014 8.78906C18.7217 8.17448 19.1579 7.70443 19.71 7.37891C20.262 7.05339 20.887 6.89062 21.585 6.89062C22.0303 6.89062 22.4443 6.95312 22.8271 7.07812C23.21 7.20312 23.5511 7.38672 23.8506 7.62891C24.1501 7.86849 24.3962 8.16276 24.5889 8.51172C24.7842 8.85807 24.9118 9.25391 24.9717 9.69922Z" fill="white" fill-opacity="0.7"/>
</svg>
