<svg width="16" height="16" viewBox="0 0 16 16" fill="none" xmlns="http://www.w3.org/2000/svg">
    <path fill-rule="evenodd" clip-rule="evenodd" d="M2.17574 2.17581C2.41005 1.94149 2.79005 1.94149 3.02437 2.17581L13.8242 12.9756L13.8652 13.0215C14.0574 13.2572 14.0438 13.6046 13.8242 13.8242C13.6045 14.0439 13.2571 14.0574 13.0214 13.8653L12.9755 13.8242L11.3066 12.1553C10.4892 13.0542 9.44554 13.4729 8.248 13.9492L8.22749 13.9571C8.08175 14.015 7.91815 14.015 7.77242 13.9571L7.75191 13.9492C4.90405 12.8164 2.91017 12.0223 2.81148 4.27737C2.80936 4.10719 2.87829 3.9531 2.99019 3.83889L2.17574 3.02444C1.94142 2.79013 1.94142 2.41012 2.17574 2.17581Z" fill="#6F6F6F"/>
    <path d="M7.60933 2.12405C7.84226 1.95864 8.15764 1.95866 8.39058 2.12405C9.65957 3.02521 11.1096 3.53137 12.582 3.64065C12.9184 3.66562 13.1926 3.9401 13.1884 4.27737C13.1557 6.84631 12.9117 8.64971 12.5 9.95511L11.5078 8.96194L6.62495 4.07913L5.68745 3.14163C6.35768 2.89199 7.00429 2.5537 7.60933 2.12405Z" fill="#6F6F6F"/>
</svg>
