<svg width="16" height="16" viewBox="0 0 16 16" fill="none" xmlns="http://www.w3.org/2000/svg">
<circle cx="8" cy="8.0011" r="6" fill="#E70205"/>
<path fill-rule="evenodd" clip-rule="evenodd" d="M5 7.78681C5 6.274 6.31679 5.0011 8 5.0011C9.68322 5.0011 11 6.274 11 7.78681C11 8.48462 10.7236 9.12549 10.2593 9.61882C10.1845 9.69832 10.1429 9.80337 10.1429 9.91253V11.0011H9.2858V10.1443C9.2858 9.9076 9.09392 9.71572 8.85723 9.71572C8.62053 9.71572 8.42866 9.9076 8.42866 10.1443V11.0011H7.57143V10.1443C7.57143 9.9076 7.37955 9.71572 7.14286 9.71572C6.90616 9.71572 6.71429 9.9076 6.71429 10.1443V11.0011H5.85714V9.91253C5.85714 9.80331 5.81545 9.69821 5.74057 9.6187C5.27647 9.1259 5 8.4851 5 7.78681ZM6.10828 6.96644C6.26902 6.80569 6.48704 6.71538 6.71437 6.71538C6.9417 6.71538 7.15972 6.80569 7.32046 6.96644C7.48121 7.12718 7.57151 7.3452 7.57151 7.57253C7.57151 7.79986 7.48121 8.01787 7.32046 8.17862C7.15972 8.33936 6.9417 8.42967 6.71437 8.42967C6.48704 8.42967 6.26902 8.33936 6.10828 8.17862C5.94753 8.01787 5.85723 7.79986 5.85723 7.57253C5.85723 7.3452 5.94753 7.12718 6.10828 6.96644ZM9.2858 6.71538C9.05847 6.71538 8.84045 6.80569 8.67971 6.96644C8.51896 7.12718 8.42866 7.3452 8.42866 7.57253C8.42866 7.79986 8.51896 8.01787 8.67971 8.17862C8.84045 8.33936 9.05847 8.42967 9.2858 8.42967C9.51313 8.42967 9.73114 8.33936 9.89189 8.17862C10.0526 8.01787 10.1429 7.79986 10.1429 7.57253C10.1429 7.3452 10.0526 7.12718 9.89189 6.96644C9.73114 6.80569 9.51313 6.71538 9.2858 6.71538Z" fill="white"/>
</svg>
